<?xml version="1.0" standalone="no"?>
<!DOCTYPE svg PUBLIC "-//W3C//DTD SVG 20010904//EN"
 "http://www.w3.org/TR/2001/REC-SVG-20010904/DTD/svg10.dtd">
<svg version="1.0" xmlns="http://www.w3.org/2000/svg"
 width="512.000000pt" height="512.000000pt" viewBox="0 0 512.000000 512.000000"
 preserveAspectRatio="xMidYMid meet">
<metadata>
Created by potrace 1.14, written by Peter Selinger 2001-2017
</metadata>
<g transform="translate(0.000000,512.000000) scale(0.100000,-0.100000)"
fill="#000000" stroke="none">
<path d="M2457 5105 c-304 -116 -611 -698 -757 -1435 -11 -58 -23 -115 -25
-127 l-5 -23 890 0 890 0 -5 23 c-2 12 -14 69 -25 127 -118 599 -336 1088
-589 1322 -96 89 -165 122 -261 125 -46 2 -89 -3 -113 -12z"/>
<path d="M1813 5014 c-265 -77 -554 -225 -803 -412 -149 -112 -382 -345 -493
-493 -131 -176 -249 -379 -321 -551 l-15 -38 590 0 c358 0 589 4 589 9 0 29
56 306 86 426 105 421 280 837 436 1037 16 20 25 39 21 41 -5 3 -45 -6 -90
-19z"/>
<path d="M3220 5030 c0 -5 23 -44 51 -85 158 -236 309 -606 404 -995 31 -126
85 -394 85 -421 0 -5 231 -9 589 -9 l590 0 -16 38 c-8 20 -41 89 -72 152 -303
606 -841 1071 -1489 1286 -150 49 -142 47 -142 34z"/>
<path d="M47 3063 c-38 -194 -47 -291 -47 -503 0 -212 9 -309 47 -502 l26
-138 624 0 623 0 -5 23 c-34 153 -34 1081 0 1235 l5 22 -623 0 -624 0 -26
-137z"/>
<path d="M1625 3158 c-34 -248 -33 -985 1 -1200 l6 -38 928 0 929 0 6 43 c34
247 33 984 -1 1200 l-6 37 -928 0 -929 0 -6 -42z"/>
<path d="M3805 3178 c33 -154 33 -1082 0 -1235 l-5 -23 623 0 624 0 26 137
c38 194 47 291 47 503 0 212 -9 309 -47 503 l-26 137 -624 0 -623 0 5 -22z"/>
<path d="M196 1563 c183 -442 551 -883 959 -1148 194 -126 386 -218 602 -291
73 -24 135 -44 138 -44 13 0 1 26 -54 109 -159 243 -300 592 -396 981 -31 126
-85 394 -85 421 0 5 -231 9 -589 9 l-590 0 15 -37z"/>
<path d="M1675 1578 c2 -13 14 -70 25 -128 116 -585 317 -1048 565 -1295 110
-111 178 -148 277 -153 84 -5 139 13 223 72 276 198 523 717 654 1376 12 58
23 115 26 128 l5 22 -890 0 -890 0 5 -22z"/>
<path d="M3736 1448 c-94 -502 -263 -967 -461 -1267 -52 -80 -62 -101 -50
-101 3 0 67 20 142 46 386 128 710 330 1004 623 241 242 433 525 553 814 l15
37 -587 0 -588 0 -28 -152z"/>
</g>
</svg>
